<svg xmlns="http://www.w3.org/2000/svg" height="300" width="300">  <path fill="#AC2316" d="M209.72 20.469L0 189.56V300h185L293.28 75l-.03-.031 3.57-34.821-12.21-22.494L262.5 4.211l-26.8.206z"/>  <path fill="#861B11" d="M250.001 6.255c24.164 0 43.755 19.582 43.755 43.755s-19.591 43.745-43.755 43.745S206.256 74.163 206.256 50s19.582-43.745 43.745-43.745m0-6.255c-27.5 0-50 22.5-50 50s22.5 50 50 50 50-22.5 50-50-22.5-50-50-50z"/>  <path fill="#861B11" d="M250.001 41.663c4.602 0 8.337 3.735 8.337 8.337s-3.735 8.337-8.337 8.337-8.336-3.735-8.336-8.337 3.734-8.337 8.336-8.337zM237.501 50c0-4.582 2.5-8.755 6.255-10.837l-12.5-21.663c-11.255 6.663-18.755 18.755-18.755 32.5h25zM250.001 62.5c-2.081 0-4.581-.837-6.255-1.663L231.256 82.5c5.419 2.918 12.082 5 18.756 5 6.663 0 13.336-1.663 18.755-5l-12.51-21.663c-1.674.826-4.174 1.663-6.256 1.663zM268.756 17.5l-12.5 21.663c3.756 2.082 6.256 6.255 6.256 10.837h25c-.01-13.745-7.51-25.837-18.756-32.5z"/></svg>