<svg xmlns="http://www.w3.org/2000/svg" height="300" width="300">  <path fill="#599CC2" d="M219.44 10.508L0 189.558v110.44h185L293.05 75.523l.15-38.922-26.87-26.2z"/>  <path fill="#49809F" d="M245.442.209c-11.602 1.079-22.38 6.159-30.722 14.494-11.504 11.454-16.727 27.714-14.018 43.6.825 4.865 2.219 9.121 4.496 13.77 2.415 4.923 5.497 9.218 9.424 13.16 11.151 11.18 26.718 16.437 42.305 14.299 18.729-2.57 34.57-15.75 40.597-33.775.884-2.647 1.65-5.884 2.14-9.022.451-2.981.451-10.278-.02-13.494-.765-5.414-2.316-10.356-4.73-15.299-2.493-5.08-5.516-9.258-9.717-13.435C274.753 4.131 260.087-1.145 245.442.21zm7.245 17.436c2.415.746 4.731 3.002 5.517 5.394 1.08 3.236.216 6.65-2.258 9.004-2.042 1.942-4.633 2.765-7.284 2.294-4.692-.843-7.873-5.256-7.087-9.826.903-5.258 6.047-8.415 11.112-6.866zm.255 20.987a6.932 6.932 0 0 1 3.377 3.314l.51 1.098.098 15.063.098 15.083.53.45c.686.59 1.217.452 1.923-.528 1.001-1.373 1.826-4.138 2.258-7.492.177-1.315.923-2.08 2.062-2.08 1.708 0 2.218.863 1.944 3.355-.943 8.394-5.772 14.063-13.33 15.593-2.18.431-3.887.314-5.36-.412-1.334-.647-2.728-2.06-3.337-3.373-.432-.941-.432-.962-.53-15.946-.098-13.946-.117-15.063-.45-15.554-.687-1.059-1.748-.451-2.77 1.57-.628 1.274-1.236 3.451-1.393 5.02-.177 1.746-.432 2.413-1.139 3-.51.432-.746.491-1.394.413a2.312 2.312 0 0 1-1.275-.628c-.452-.45-.51-.628-.472-1.726.04-.667.177-1.923.353-2.805 1.257-6.668 5.026-11.258 10.837-13.2 3.258-1.098 5.379-1.156 7.46-.215z"/></svg>