<svg xmlns="http://www.w3.org/2000/svg" height="300" width="300">
  <path fill="#BE9B3D" d="M239.59 4.498L.002 189.557v110.438H185L297.78 83.654l-.31-7.618-42.85-72.316z"/>  
  <path fill="#796327" d="M243.06 21.433l3.546 39.106h6.779l3.546-39.106z"/>
  <path fill="#796327" d="M285.021 90.197h-70.836c-7.783 0-14.217-6.245-14.217-14.029 0-2.95 1.035-5.712 2.416-7.972l35.34-61.138c5.9-10.231 20.275-8.819 24.95.88l35.34 61.137c5.9 10.043-2.228 21.813-12.993 21.122m.188-6.936c5.555.345 9.698-5.555 6.748-10.733l-35.496-61.295c-2.26-5.022-9.541-5.9-12.648-.69l-35.34 61.482c-.879 1.224-1.38 2.605-1.38 4.143 0 3.798 3.106 7.093 7.092 7.093h71.024z"/>
  <path fill="#796327" d="M249.995 78.805c3.955 0 7.188-3.233 7.188-7.188s-3.233-7.187-7.188-7.187-7.187 3.202-7.187 7.187 3.233 7.188 7.187 7.188"/>
</svg>